{"asset":{"version":"2.0","generator":"THREE.GLTFExporter"},"scenes":[{"nodes":[0],"name":"AuxScene"}],"scene":0,"nodes":[{"mesh":0}],"bufferViews":[{"buffer":0,"byteOffset":0,"byteLength":95508,"target":34962,"byteStride":12},{"buffer":0,"byteOffset":95508,"byteLength":95508,"target":34962,"byteStride":12}],"buffers":[{"byteLength":191016,"uri":"data:application/octet-stream;base64,"}],"accessors":[{"bufferView":0,"componentType":5126,"count":7959,"max":[100.7119140625,26.595970153808594,100.7119140625],"min":[-100.78809356689453,0.19596900045871735,-100.78809356689453],"type":"VEC3"},{"bufferView":1,"componentType":5126,"count":7959,"max":[0.9974102973937988,1,0.9995001554489136],"min":[-0.9950217008590698,0.02630504220724106,-0.9993743896484375],"type":"VEC3"}],"materials":[{"pbrMetallicRoughness":{"baseColorFactor":[0.5019607843137255,0.5019607843137255,0.5019607843137255,1],"metallicFactor":0,"roughnessFactor":1}}],"meshes":[{"primitives":[{"mode":4,"attributes":{"POSITION":0,"NORMAL":1},"material":0}]}]}